<svg xmlns="http://www.w3.org/2000/svg" width="1200" height="720" viewBox="0 0 1200 720" role="img" aria-labelledby="title desc">
<title id="title">GymFlow use-case diagram</title><desc id="desc">Member and staff use cases for GymFlow.</desc>
<defs><style>.system{fill:#f9fcfb;stroke:#8ebbb4;stroke-width:2}.case{fill:#dcf6f0;stroke:#148a7c;stroke-width:2}.line{stroke:#4b6965;stroke-width:2;fill:none}.t{font:16px Arial;fill:#183a36}.h{font:bold 22px Arial;fill:#0a665d}.actor{stroke:#183a36;stroke-width:3;fill:none}</style></defs>
<rect width="1200" height="720" fill="#f4f8f7"/><rect class="system" x="260" y="45" width="680" height="625" rx="18"/><text class="h" x="550" y="78">GymFlow</text>
<g class="actor"><circle cx="115" cy="240" r="26"/><path d="M115 266V350M70 300H160M115 350L75 410M115 350L155 410"/><circle cx="1085" cy="240" r="26"/><path d="M1085 266V350M1040 300H1130M1085 350L1045 410M1085 350L1125 410"/></g>
<text class="h" x="77" y="445">Member</text><text class="h" x="1060" y="445">Staff</text>
<g><ellipse class="case" cx="455" cy="155" rx="135" ry="43"/><text class="t" x="391" y="161">Reserve Resource</text><ellipse class="case" cx="745" cy="155" rx="135" ry="43"/><text class="t" x="682" y="161">Enqueue Request</text><ellipse class="case" cx="455" cy="285" rx="135" ry="43"/><text class="t" x="421" y="291">Check In</text><ellipse class="case" cx="745" cy="285" rx="135" ry="43"/><text class="t" x="674" y="291">Cancel Reservation</text><ellipse class="case" cx="455" cy="415" rx="135" ry="43"/><text class="t" x="375" y="421">Complete Reservation</text><ellipse class="case" cx="745" cy="415" rx="135" ry="43"/><text class="t" x="686" y="421">Track No-Show</text><ellipse class="case" cx="600" cy="555" rx="190" ry="47"/><text class="t" x="499" y="561">Staff Resource Management</text></g>
<path class="line" d="M150 270L332 173M150 290L320 285M150 315L610 285M590 155H610" stroke-dasharray="0"/><path class="line" d="M1050 275L582 410M1050 295L880 415M1050 330L790 535"/><text class="t" x="600" y="140">extends</text>
</svg>
